<svg width="221" height="27" viewBox="0 0 221 27" fill="none" xmlns="http://www.w3.org/2000/svg">
<path d="M2.4836 0.90625H6.4211L13.8215 20.6465L21.2043 0.90625H25.1418L15.3684 26.5H12.2395L2.4836 0.90625ZM0.690628 0.90625H4.43477L5.08516 17.9922V26.5H0.690628V0.90625ZM23.1906 0.90625H26.9523V26.5H22.5402V17.9922L23.1906 0.90625ZM31.1102 17.2012V16.7969C31.1102 15.4258 31.3094 14.1543 31.7078 12.9824C32.1063 11.7988 32.6805 10.7734 33.4305 9.90625C34.1922 9.02734 35.118 8.34766 36.2078 7.86719C37.3094 7.375 38.5516 7.12891 39.9344 7.12891C41.3289 7.12891 42.5711 7.375 43.6609 7.86719C44.7625 8.34766 45.6941 9.02734 46.4559 9.90625C47.2176 10.7734 47.7977 11.7988 48.1961 12.9824C48.5945 14.1543 48.7938 15.4258 48.7938 16.7969V17.2012C48.7938 18.5723 48.5945 19.8438 48.1961 21.0156C47.7977 22.1875 47.2176 23.2129 46.4559 24.0918C45.6941 24.959 44.7684 25.6387 43.6785 26.1309C42.5887 26.6113 41.3523 26.8516 39.9695 26.8516C38.575 26.8516 37.327 26.6113 36.2254 26.1309C35.1355 25.6387 34.2098 24.959 33.448 24.0918C32.6863 23.2129 32.1063 22.1875 31.7078 21.0156C31.3094 19.8438 31.1102 18.5723 31.1102 17.2012ZM35.3465 16.7969V17.2012C35.3465 18.0566 35.4344 18.8652 35.6102 19.627C35.7859 20.3887 36.0613 21.0566 36.4363 21.6309C36.8113 22.2051 37.2918 22.6562 37.8777 22.9844C38.4637 23.3125 39.1609 23.4766 39.9695 23.4766C40.7547 23.4766 41.4344 23.3125 42.0086 22.9844C42.5945 22.6562 43.075 22.2051 43.45 21.6309C43.825 21.0566 44.1004 20.3887 44.2762 19.627C44.4637 18.8652 44.5574 18.0566 44.5574 17.2012V16.7969C44.5574 15.9531 44.4637 15.1562 44.2762 14.4062C44.1004 13.6445 43.8191 12.9707 43.4324 12.3848C43.0574 11.7988 42.577 11.3418 41.991 11.0137C41.4168 10.6738 40.7313 10.5039 39.9344 10.5039C39.1375 10.5039 38.4461 10.6738 37.8602 11.0137C37.2859 11.3418 36.8113 11.7988 36.4363 12.3848C36.0613 12.9707 35.7859 13.6445 35.6102 14.4062C35.4344 15.1562 35.3465 15.9531 35.3465 16.7969ZM58.4008 23.1426L63.059 7.48047H67.4535L60.8441 26.5H58.102L58.4008 23.1426ZM54.8324 7.48047L59.5785 23.2129L59.807 26.5H57.0648L50.4203 7.48047H54.8324ZM74.7578 7.48047V26.5H70.5039V7.48047H74.7578ZM70.2227 2.48828C70.2227 1.84375 70.4336 1.31055 70.8555 0.888672C71.2891 0.455078 71.8867 0.238281 72.6484 0.238281C73.3984 0.238281 73.9902 0.455078 74.4238 0.888672C74.8574 1.31055 75.0742 1.84375 75.0742 2.48828C75.0742 3.12109 74.8574 3.64844 74.4238 4.07031C73.9902 4.49219 73.3984 4.70312 72.6484 4.70312C71.8867 4.70312 71.2891 4.49219 70.8555 4.07031C70.4336 3.64844 70.2227 3.12109 70.2227 2.48828ZM87.9332 26.8516C86.527 26.8516 85.2555 26.623 84.1188 26.166C82.9938 25.6973 82.0328 25.0469 81.2359 24.2148C80.4508 23.3828 79.8473 22.4043 79.4254 21.2793C79.0035 20.1543 78.7926 18.9414 78.7926 17.6406V16.9375C78.7926 15.4492 79.0094 14.1016 79.443 12.8945C79.8766 11.6875 80.4801 10.6562 81.2535 9.80078C82.027 8.93359 82.941 8.27148 83.9957 7.81445C85.0504 7.35742 86.193 7.12891 87.4234 7.12891C88.7828 7.12891 89.9723 7.35742 90.9918 7.81445C92.0113 8.27148 92.8551 8.91602 93.523 9.74805C94.2027 10.5684 94.7066 11.5469 95.0348 12.6836C95.3746 13.8203 95.5445 15.0742 95.5445 16.4453V18.2559H80.8492V15.2148H91.3609V14.8809C91.3375 14.1191 91.1852 13.4043 90.9039 12.7363C90.6344 12.0684 90.2184 11.5293 89.6559 11.1191C89.0934 10.709 88.3434 10.5039 87.4059 10.5039C86.7027 10.5039 86.0758 10.6562 85.525 10.9609C84.9859 11.2539 84.5348 11.6816 84.1715 12.2441C83.8082 12.8066 83.527 13.4863 83.3277 14.2832C83.1402 15.0684 83.0465 15.9531 83.0465 16.9375V17.6406C83.0465 18.4727 83.1578 19.2461 83.3805 19.9609C83.6148 20.6641 83.9547 21.2793 84.4 21.8066C84.8453 22.334 85.3844 22.75 86.0172 23.0547C86.65 23.3477 87.3707 23.4941 88.1793 23.4941C89.1988 23.4941 90.107 23.2891 90.9039 22.8789C91.7008 22.4688 92.3922 21.8887 92.9781 21.1387L95.2105 23.3008C94.8004 23.8984 94.2672 24.4727 93.6109 25.0234C92.9547 25.5625 92.152 26.002 91.2027 26.3418C90.2652 26.6816 89.1754 26.8516 87.9332 26.8516ZM122.001 19.9082C122.001 19.3809 121.919 18.9121 121.755 18.502C121.602 18.0918 121.327 17.7168 120.929 17.377C120.53 17.0371 119.968 16.709 119.241 16.3926C118.526 16.0645 117.612 15.7305 116.499 15.3906C115.28 15.0156 114.155 14.5996 113.124 14.1426C112.104 13.6738 111.214 13.1348 110.452 12.5254C109.69 11.9043 109.098 11.1953 108.677 10.3984C108.255 9.58984 108.044 8.6582 108.044 7.60352C108.044 6.56055 108.261 5.61133 108.694 4.75586C109.139 3.90039 109.766 3.16211 110.575 2.54102C111.395 1.9082 112.362 1.42187 113.475 1.08203C114.589 0.730469 115.819 0.554688 117.167 0.554688C119.065 0.554688 120.7 0.90625 122.071 1.60938C123.454 2.3125 124.514 3.25586 125.253 4.43945C126.003 5.62305 126.378 6.92969 126.378 8.35938H122.001C122.001 7.51562 121.819 6.77148 121.456 6.12695C121.104 5.4707 120.565 4.95508 119.839 4.58008C119.124 4.20508 118.216 4.01758 117.114 4.01758C116.071 4.01758 115.204 4.17578 114.513 4.49219C113.821 4.80859 113.305 5.23633 112.966 5.77539C112.626 6.31445 112.456 6.92383 112.456 7.60352C112.456 8.08398 112.567 8.52344 112.79 8.92188C113.013 9.30859 113.352 9.67188 113.809 10.0117C114.266 10.3398 114.841 10.6504 115.532 10.9434C116.223 11.2363 117.038 11.5176 117.975 11.7871C119.393 12.209 120.63 12.6777 121.684 13.1934C122.739 13.6973 123.618 14.2715 124.321 14.916C125.024 15.5605 125.552 16.293 125.903 17.1133C126.255 17.9219 126.43 18.8418 126.43 19.873C126.43 20.9512 126.214 21.9238 125.78 22.791C125.346 23.6465 124.725 24.3789 123.917 24.9883C123.12 25.5859 122.159 26.0488 121.034 26.377C119.921 26.6934 118.679 26.8516 117.307 26.8516C116.077 26.8516 114.864 26.6875 113.669 26.3594C112.485 26.0312 111.407 25.5332 110.434 24.8652C109.462 24.1855 108.688 23.3418 108.114 22.334C107.54 21.3145 107.253 20.125 107.253 18.7656H111.665C111.665 19.5977 111.805 20.3066 112.087 20.8926C112.38 21.4785 112.784 21.959 113.3 22.334C113.815 22.6973 114.413 22.9668 115.093 23.1426C115.784 23.3184 116.522 23.4062 117.307 23.4062C118.339 23.4062 119.2 23.2598 119.891 22.9668C120.595 22.6738 121.122 22.2637 121.473 21.7363C121.825 21.209 122.001 20.5996 122.001 19.9082ZM138.78 7.48047V10.5742H128.057V7.48047H138.78ZM131.151 2.82227H135.387V21.2441C135.387 21.8301 135.469 22.2812 135.633 22.5977C135.809 22.9023 136.049 23.1074 136.354 23.2129C136.659 23.3184 137.016 23.3711 137.426 23.3711C137.719 23.3711 138 23.3535 138.27 23.3184C138.539 23.2832 138.756 23.248 138.92 23.2129L138.938 26.4473C138.586 26.5527 138.176 26.6465 137.707 26.7285C137.25 26.8105 136.723 26.8516 136.125 26.8516C135.153 26.8516 134.291 26.6816 133.541 26.3418C132.791 25.9902 132.205 25.4219 131.784 24.6367C131.362 23.8516 131.151 22.8086 131.151 21.5078V2.82227ZM146.453 11.1016V26.5H142.217V7.48047H146.26L146.453 11.1016ZM152.271 7.35742L152.236 11.2949C151.979 11.248 151.697 11.2129 151.393 11.1895C151.1 11.166 150.807 11.1543 150.514 11.1543C149.787 11.1543 149.148 11.2598 148.598 11.4707C148.047 11.6699 147.584 11.9629 147.209 12.3496C146.846 12.7246 146.564 13.1816 146.365 13.7207C146.166 14.2598 146.049 14.8633 146.014 15.5312L145.047 15.6016C145.047 14.4062 145.164 13.2988 145.398 12.2793C145.633 11.2598 145.984 10.3633 146.453 9.58984C146.934 8.81641 147.531 8.21289 148.246 7.7793C148.973 7.3457 149.811 7.12891 150.76 7.12891C151.018 7.12891 151.293 7.15234 151.586 7.19922C151.891 7.24609 152.119 7.29883 152.271 7.35742ZM163.109 26.8516C161.703 26.8516 160.431 26.623 159.295 26.166C158.17 25.6973 157.209 25.0469 156.412 24.2148C155.627 23.3828 155.023 22.4043 154.601 21.2793C154.179 20.1543 153.968 18.9414 153.968 17.6406V16.9375C153.968 15.4492 154.185 14.1016 154.619 12.8945C155.052 11.6875 155.656 10.6562 156.429 9.80078C157.203 8.93359 158.117 8.27148 159.171 7.81445C160.226 7.35742 161.369 7.12891 162.599 7.12891C163.959 7.12891 165.148 7.35742 166.168 7.81445C167.187 8.27148 168.031 8.91602 168.699 9.74805C169.379 10.5684 169.882 11.5469 170.211 12.6836C170.55 13.8203 170.72 15.0742 170.72 16.4453V18.2559H156.025V15.2148H166.537V14.8809C166.513 14.1191 166.361 13.4043 166.08 12.7363C165.81 12.0684 165.394 11.5293 164.832 11.1191C164.269 10.709 163.519 10.5039 162.582 10.5039C161.879 10.5039 161.252 10.6562 160.701 10.9609C160.162 11.2539 159.711 11.6816 159.347 12.2441C158.984 12.8066 158.703 13.4863 158.504 14.2832C158.316 15.0684 158.222 15.9531 158.222 16.9375V17.6406C158.222 18.4727 158.334 19.2461 158.556 19.9609C158.791 20.6641 159.13 21.2793 159.576 21.8066C160.021 22.334 160.56 22.75 161.193 23.0547C161.826 23.3477 162.546 23.4941 163.355 23.4941C164.375 23.4941 165.283 23.2891 166.08 22.8789C166.877 22.4688 167.568 21.8887 168.154 21.1387L170.386 23.3008C169.976 23.8984 169.443 24.4727 168.787 25.0234C168.13 25.5625 167.328 26.002 166.379 26.3418C165.441 26.6816 164.351 26.8516 163.109 26.8516ZM184.898 22.6855V13.6152C184.898 12.9355 184.775 12.3496 184.529 11.8574C184.282 11.3652 183.907 10.9844 183.404 10.7148C182.911 10.4453 182.29 10.3105 181.54 10.3105C180.849 10.3105 180.251 10.4277 179.747 10.6621C179.243 10.8965 178.851 11.2129 178.57 11.6113C178.288 12.0098 178.148 12.4609 178.148 12.9648H173.929C173.929 12.2148 174.111 11.4883 174.474 10.7852C174.837 10.082 175.364 9.45508 176.056 8.9043C176.747 8.35352 177.573 7.91992 178.534 7.60352C179.495 7.28711 180.573 7.12891 181.769 7.12891C183.198 7.12891 184.464 7.36914 185.566 7.84961C186.679 8.33008 187.552 9.05664 188.185 10.0293C188.829 10.9902 189.152 12.1973 189.152 13.6504V22.1055C189.152 22.9727 189.21 23.752 189.327 24.4434C189.456 25.123 189.638 25.7148 189.872 26.2188V26.5H185.53C185.331 26.043 185.173 25.4629 185.056 24.7598C184.95 24.0449 184.898 23.3535 184.898 22.6855ZM185.513 14.9336L185.548 17.5527H182.507C181.722 17.5527 181.03 17.6289 180.433 17.7812C179.835 17.9219 179.337 18.1328 178.939 18.4141C178.54 18.6953 178.241 19.0352 178.042 19.4336C177.843 19.832 177.743 20.2832 177.743 20.7871C177.743 21.291 177.861 21.7539 178.095 22.1758C178.329 22.5859 178.669 22.9082 179.114 23.1426C179.571 23.377 180.122 23.4941 180.767 23.4941C181.634 23.4941 182.39 23.3184 183.034 22.9668C183.691 22.6035 184.206 22.1641 184.581 21.6484C184.956 21.1211 185.155 20.623 185.179 20.1543L186.55 22.0352C186.409 22.5156 186.169 23.0312 185.829 23.582C185.489 24.1328 185.044 24.6602 184.493 25.1641C183.954 25.6562 183.304 26.0605 182.542 26.377C181.792 26.6934 180.925 26.8516 179.941 26.8516C178.698 26.8516 177.591 26.6055 176.618 26.1133C175.646 25.6094 174.884 24.9355 174.333 24.0918C173.782 23.2363 173.507 22.2695 173.507 21.1914C173.507 20.1836 173.695 19.293 174.07 18.5195C174.456 17.7344 175.019 17.0781 175.757 16.5508C176.507 16.0234 177.421 15.625 178.499 15.3555C179.577 15.0742 180.808 14.9336 182.191 14.9336H185.513ZM197.968 11.3477V26.5H193.731V7.48047H197.721L197.968 11.3477ZM197.282 16.2871L195.841 16.2695C195.841 14.957 196.005 13.7441 196.333 12.6309C196.661 11.5176 197.141 10.5508 197.774 9.73047C198.407 8.89844 199.192 8.25977 200.13 7.81445C201.079 7.35742 202.175 7.12891 203.417 7.12891C204.284 7.12891 205.075 7.25781 205.79 7.51562C206.516 7.76172 207.143 8.1543 207.671 8.69336C208.21 9.23242 208.62 9.92383 208.901 10.7676C209.194 11.6113 209.341 12.6309 209.341 13.8262V26.5H205.104V14.1953C205.104 13.2695 204.964 12.543 204.682 12.0156C204.413 11.4883 204.02 11.1133 203.505 10.8906C203.001 10.6562 202.397 10.5391 201.694 10.5391C200.897 10.5391 200.218 10.6914 199.655 10.9961C199.104 11.3008 198.653 11.7168 198.302 12.2441C197.95 12.7715 197.692 13.3809 197.528 14.0723C197.364 14.7637 197.282 15.502 197.282 16.2871ZM209.077 15.1621L207.091 15.6016C207.091 14.4531 207.249 13.3691 207.565 12.3496C207.893 11.3184 208.368 10.416 208.989 9.64258C209.622 8.85742 210.401 8.24219 211.327 7.79688C212.253 7.35156 213.313 7.12891 214.509 7.12891C215.481 7.12891 216.348 7.26367 217.11 7.5332C217.884 7.79102 218.54 8.20117 219.079 8.76367C219.618 9.32617 220.028 10.0586 220.309 10.9609C220.591 11.8516 220.731 12.9297 220.731 14.1953V26.5H216.477V14.1777C216.477 13.2168 216.337 12.4727 216.055 11.9453C215.786 11.418 215.399 11.0547 214.895 10.8555C214.391 10.6445 213.788 10.5391 213.085 10.5391C212.429 10.5391 211.848 10.6621 211.345 10.9082C210.852 11.1426 210.436 11.4766 210.096 11.9102C209.757 12.332 209.499 12.8184 209.323 13.3691C209.159 13.9199 209.077 14.5176 209.077 15.1621Z" fill="url(#paint0_linear_54405_36207)"/>
<defs>
<linearGradient id="paint0_linear_54405_36207" x1="-2" y1="14.5" x2="223" y2="14.5" gradientUnits="userSpaceOnUse">
<stop stop-color="#AB0F28"/>
<stop offset="1" stop-color="#3504A5"/>
</linearGradient>
</defs>
</svg>
